# xmcd
#
# Track frame offsets: 
#        182
#        14770
#        35387
#        50647
#        63732
#        83525
#        95625
#        113680
#        127995
#        143325
#        156535
#        165525
#        175460
#        189810
#        202742
#        220792
#
# Disc length: 3090 seconds
#
# Revision: 2
# Processed by: cddbd v1.5.2PL0 Copyright (c) Steve Scherf et al.
# Submitted via: ExactAudioCopyFreeDBPlugin 1.0
#
DISCID=d50c1010
DTITLE=Varius - New-Orleans Story
DYEAR=1992
DGENRE=Other
TTITLE0=Petite fleur - S. Bechet
TTITLE1=Royal garden blues - Williams
TTITLE2=Bill Bailey - Guest Star c. Frazier
TTITLE3=Saint Louis memories - M. Sauri
TTITLE4=Basin street blues - Williams
TTITLE5=Sweet Georgia Brown - Bernie - Pinkard - Casey
TTITLE6=Maxim's bellboy - M. Saury
TTITLE7=OH! When the saints - arr. A. Angel - Jemmot
TTITLE8=Nobody knows - arr. A. Angel - Jemmot
TTITLE9=Down by Riverside - arr. A. Angel - Jemmot
TTITLE10=Jericho - arr. A. Angel - Jemmot
TTITLE11=Go tell it on the mountain - arr. A. Angel - Jemmot
TTITLE12=Go down moses - arr. A. Angel - Jemmot
TTITLE13=The good book - S. D. Timrey
TTITLE14=Swing low, sweet chariot - arr. A. Angel - Jemmot
TTITLE15=Do lord - arr. A. Angel - Jemmot
EXTD=
EXTT0=
EXTT1=
EXTT2=
EXTT3=
EXTT4=
EXTT5=
EXTT6=
EXTT7=
EXTT8=
EXTT9=
EXTT10=
EXTT11=
EXTT12=
EXTT13=
EXTT14=
EXTT15=
PLAYORDER=
